<mxfile host="app.diagrams.net" modified="2020-10-28T07:35:07.712Z" agent="5.0 (Macintosh; Intel Mac OS X 10_13_6) AppleWebKit/537.36 (KHTML, like Gecko) Chrome/85.0.4183.121 Safari/537.36" etag="My_4cfvv1wn70lykTGcp" version="13.8.5" type="github">
  <diagram id="VJCo5P5VoEOkaGIKsCtQ" name="Page-1">
    <mxGraphModel dx="1426" dy="722" grid="1" gridSize="10" guides="1" tooltips="1" connect="1" arrows="1" fold="1" page="1" pageScale="1" pageWidth="827" pageHeight="1169" math="0" shadow="0">
      <root>
        <mxCell id="0" />
        <mxCell id="1" parent="0" />
        <mxCell id="xea7Ob0zWwAoHEg_F9E0-7" style="edgeStyle=orthogonalEdgeStyle;rounded=0;orthogonalLoop=1;jettySize=auto;html=1;exitX=0.5;exitY=1;exitDx=0;exitDy=0;entryX=0.5;entryY=0;entryDx=0;entryDy=0;" edge="1" parent="1" source="xea7Ob0zWwAoHEg_F9E0-1" target="xea7Ob0zWwAoHEg_F9E0-6">
          <mxGeometry relative="1" as="geometry" />
        </mxCell>
        <mxCell id="xea7Ob0zWwAoHEg_F9E0-1" value="&lt;font style=&quot;font-size: 15px&quot;&gt;开始&lt;/font&gt;" style="rounded=1;whiteSpace=wrap;html=1;" vertex="1" parent="1">
          <mxGeometry x="340" y="50" width="90" height="40" as="geometry" />
        </mxCell>
        <mxCell id="xea7Ob0zWwAoHEg_F9E0-9" value="" style="edgeStyle=orthogonalEdgeStyle;rounded=0;orthogonalLoop=1;jettySize=auto;html=1;" edge="1" parent="1" source="xea7Ob0zWwAoHEg_F9E0-6" target="xea7Ob0zWwAoHEg_F9E0-8">
          <mxGeometry relative="1" as="geometry" />
        </mxCell>
        <mxCell id="xea7Ob0zWwAoHEg_F9E0-6" value="&lt;font style=&quot;font-size: 15px&quot;&gt;创建企业&lt;/font&gt;" style="rounded=0;whiteSpace=wrap;html=1;" vertex="1" parent="1">
          <mxGeometry x="328.75" y="130" width="112.5" height="40" as="geometry" />
        </mxCell>
        <mxCell id="xea7Ob0zWwAoHEg_F9E0-11" style="edgeStyle=orthogonalEdgeStyle;rounded=0;orthogonalLoop=1;jettySize=auto;html=1;" edge="1" parent="1" source="xea7Ob0zWwAoHEg_F9E0-8" target="xea7Ob0zWwAoHEg_F9E0-10">
          <mxGeometry relative="1" as="geometry" />
        </mxCell>
        <mxCell id="xea7Ob0zWwAoHEg_F9E0-14" value="是" style="edgeLabel;html=1;align=center;verticalAlign=middle;resizable=0;points=[];" vertex="1" connectable="0" parent="xea7Ob0zWwAoHEg_F9E0-11">
          <mxGeometry x="-0.1653" y="-1" relative="1" as="geometry">
            <mxPoint as="offset" />
          </mxGeometry>
        </mxCell>
        <mxCell id="xea7Ob0zWwAoHEg_F9E0-13" style="edgeStyle=orthogonalEdgeStyle;rounded=0;orthogonalLoop=1;jettySize=auto;html=1;entryX=0.5;entryY=0;entryDx=0;entryDy=0;" edge="1" parent="1" source="xea7Ob0zWwAoHEg_F9E0-8" target="xea7Ob0zWwAoHEg_F9E0-12">
          <mxGeometry relative="1" as="geometry" />
        </mxCell>
        <mxCell id="xea7Ob0zWwAoHEg_F9E0-15" value="否" style="edgeLabel;html=1;align=center;verticalAlign=middle;resizable=0;points=[];" vertex="1" connectable="0" parent="xea7Ob0zWwAoHEg_F9E0-13">
          <mxGeometry x="-0.387" relative="1" as="geometry">
            <mxPoint as="offset" />
          </mxGeometry>
        </mxCell>
        <mxCell id="xea7Ob0zWwAoHEg_F9E0-8" value="自有账号体系接入？" style="rhombus;whiteSpace=wrap;html=1;" vertex="1" parent="1">
          <mxGeometry x="317.75" y="220" width="134.5" height="60" as="geometry" />
        </mxCell>
        <mxCell id="xea7Ob0zWwAoHEg_F9E0-17" value="" style="edgeStyle=orthogonalEdgeStyle;rounded=0;orthogonalLoop=1;jettySize=auto;html=1;" edge="1" parent="1" source="xea7Ob0zWwAoHEg_F9E0-10" target="xea7Ob0zWwAoHEg_F9E0-16">
          <mxGeometry relative="1" as="geometry" />
        </mxCell>
        <mxCell id="xea7Ob0zWwAoHEg_F9E0-10" value="录入OAuth接口信息" style="rounded=0;whiteSpace=wrap;html=1;" vertex="1" parent="1">
          <mxGeometry x="170" y="310" width="110" height="50" as="geometry" />
        </mxCell>
        <mxCell id="xea7Ob0zWwAoHEg_F9E0-22" value="" style="edgeStyle=orthogonalEdgeStyle;rounded=0;orthogonalLoop=1;jettySize=auto;html=1;" edge="1" parent="1" source="xea7Ob0zWwAoHEg_F9E0-12" target="xea7Ob0zWwAoHEg_F9E0-19">
          <mxGeometry relative="1" as="geometry" />
        </mxCell>
        <mxCell id="xea7Ob0zWwAoHEg_F9E0-12" value="创建客服" style="rounded=0;whiteSpace=wrap;html=1;" vertex="1" parent="1">
          <mxGeometry x="480" y="310" width="110" height="50" as="geometry" />
        </mxCell>
        <mxCell id="xea7Ob0zWwAoHEg_F9E0-20" style="edgeStyle=orthogonalEdgeStyle;rounded=0;orthogonalLoop=1;jettySize=auto;html=1;entryX=0;entryY=0.5;entryDx=0;entryDy=0;" edge="1" parent="1" source="xea7Ob0zWwAoHEg_F9E0-16" target="xea7Ob0zWwAoHEg_F9E0-19">
          <mxGeometry relative="1" as="geometry" />
        </mxCell>
        <mxCell id="xea7Ob0zWwAoHEg_F9E0-16" value="同步账号" style="rounded=0;whiteSpace=wrap;html=1;" vertex="1" parent="1">
          <mxGeometry x="170" y="400" width="110" height="50" as="geometry" />
        </mxCell>
        <mxCell id="xea7Ob0zWwAoHEg_F9E0-19" value="&lt;font style=&quot;font-size: 15px&quot;&gt;结束&lt;/font&gt;" style="rounded=1;whiteSpace=wrap;html=1;" vertex="1" parent="1">
          <mxGeometry x="490" y="405" width="90" height="40" as="geometry" />
        </mxCell>
      </root>
    </mxGraphModel>
  </diagram>
</mxfile>
